<svg id="Layer_1" data-name="Layer 1" xmlns="http://www.w3.org/2000/svg" viewBox="0 0 74.6 74.6"><defs><style>.cls-1{fill:#fee017;}.cls-2{fill:#383034;}</style></defs><title>logostudiapajak</title><circle class="cls-1" cx="37.3" cy="37.3" r="37.3"/><path class="cls-2" d="M178.4,344.3a2.69,2.69,0,0,0-2.7,2.68s0,0,0,0v1.6H177a.22.22,0,0,1,.2.2v.3l-2.7,3.1a.35.35,0,0,1-.2.1c-.1,0-.2,0-.2-.1l-2.7-3.1a.35.35,0,0,1-.1-.2.27.27,0,0,1,.3-.3h1.3v-6.7a2.7,2.7,0,0,0-5.4,0v13.6l-.3-.3a1.46,1.46,0,0,0-2.2,0l-.3.4V336.9a2.7,2.7,0,0,0-5.4,0v11.8h1.3a.22.22,0,0,1,.2.2v.3l-2.7,3.1a.35.35,0,0,1-.2.1c-.1,0-.2,0-.2-.1l-2.7-3.1a.35.35,0,0,1-.1-.2.27.27,0,0,1,.3-.3h1.3V342a2.7,2.7,0,0,0-5.4,0v13.6l-.3-.3a1.46,1.46,0,0,0-2.2,0l-.3.4V347a2.7,2.7,0,1,0-5.4,0v12.5a2.7,2.7,0,1,0,5.4,0v-.2H147a.22.22,0,0,1-.2-.2v-.3l2.7-3.1a.35.35,0,0,1,.2-.1c.1,0,.2,0,.2.1l2.7,3.1a.35.35,0,0,1,.1.2.27.27,0,0,1-.3.3H151v5.3a2.7,2.7,0,1,0,5.4,0V352.5l.3.3a1.46,1.46,0,0,0,2.2,0l.3-.4v17.3a2.7,2.7,0,1,0,5.4,0V359.3h-1.3a.22.22,0,0,1-.2-.2v-.3l2.7-3.1a.35.35,0,0,1,.2-.1c.1,0,.2,0,.2.1l2.7,3.1a.35.35,0,0,1,.1.2.27.27,0,0,1-.3.3h-1.3v5.3a2.7,2.7,0,0,0,5.4,0V352.5l.3.3a1.46,1.46,0,0,0,2.2,0l.3-.4v7.1a2.7,2.7,0,1,0,5.4,0h0V347A2.55,2.55,0,0,0,178.4,344.3Z" transform="translate(-124.7 -316)"/></svg>